<?xml version="1.0" standalone="no"?><!DOCTYPE svg PUBLIC "-//W3C//DTD SVG 1.1//EN" "http://www.w3.org/Graphics/SVG/1.1/DTD/svg11.dtd"><svg t="1601109557214" class="icon" viewBox="0 0 1024 1024" version="1.1" xmlns="http://www.w3.org/2000/svg" p-id="4013" xmlns:xlink="http://www.w3.org/1999/xlink" width="200" height="200"><defs><style type="text/css"></style></defs><path d="M512 296.533333c-117.333333 0-215.466667 96-215.466667 215.466667 0 117.333333 96 215.466667 215.466667 215.466667S727.466667 629.333333 727.466667 512 629.333333 296.533333 512 296.533333z m64 209.066667h-42.666667v23.466667h27.733334c10.666667 0 21.333333 8.533333 21.333333 21.333333s-8.533333 21.333333-21.333333 21.333333H533.333333v44.8c0 10.666667-8.533333 21.333333-21.333333 21.333334s-21.333333-8.533333-21.333333-21.333334v-44.8h-27.733334c-10.666667 0-21.333333-8.533333-21.333333-21.333333s8.533333-21.333333 21.333333-21.333333H490.666667v-23.466667h-42.666667c-10.666667 0-21.333333-8.533333-21.333333-21.333333s8.533333-21.333333 21.333333-21.333334h25.6L448 433.066667c-6.4-8.533333-6.4-21.333333 2.133333-29.866667 8.533333-6.4 21.333333-6.4 29.866667 2.133333l32 38.4 32-38.4c6.4-8.533333 21.333333-10.666667 29.866667-2.133333 8.533333 6.4 10.666667 21.333333 2.133333 29.866667l-25.6 29.866666H576c10.666667 0 21.333333 8.533333 21.333333 21.333334s-10.666667 21.333333-21.333333 21.333333z" fill="#3D7EFF" p-id="4014"></path><path d="M512 0C228.266667 0 0 228.266667 0 512s228.266667 512 512 512 512-228.266667 512-512S795.733333 0 512 0z m0 768c-140.8 0-256-115.2-256-256s115.2-256 256-256 256 115.2 256 256-115.2 256-256 256z" fill="#3D7EFF" p-id="4015"></path></svg>