<?xml version="1.0" standalone="no"?><!DOCTYPE svg PUBLIC "-//W3C//DTD SVG 1.1//EN" "http://www.w3.org/Graphics/SVG/1.1/DTD/svg11.dtd"><svg t="1601368215260" class="icon" viewBox="0 0 1024 1024" version="1.1" xmlns="http://www.w3.org/2000/svg" p-id="1493" xmlns:xlink="http://www.w3.org/1999/xlink" width="200" height="200"><defs><style type="text/css"></style></defs><path d="M803.758 514.017c-0.001-0.311-0.013-0.622-0.018-0.933-0.162-23.974-9.386-47.811-27.743-65.903-0.084-0.082-0.172-0.157-0.256-0.239-0.154-0.154-0.296-0.315-0.451-0.468L417.861 94.096c-37.685-37.153-99.034-37.476-136.331-0.718-37.297 36.758-36.979 97.231 0.707 134.384l290.361 286.257-290.362 286.257c-37.685 37.153-38.004 97.625-0.707 134.383 37.297 36.758 98.646 36.435 136.331-0.718l357.43-352.378c0.155-0.153 0.297-0.314 0.451-0.468 0.084-0.082 0.172-0.157 0.256-0.239 18.354-18.089 27.578-41.922 27.743-65.892 0.004-0.315 0.017-0.631 0.018-0.947z" p-id="1494"></path></svg>